{
  "accessors": [
    {
      "bufferView": 2,
      "componentType": 5126,
      "count": 2244,
      "max": [
        1.4687039852142334,
        0.26839399337768555,
        2.554105043411255
      ],
      "min": [
        -1.4687039852142334,
        -0.2683910131454468,
        -1.9697489738464355
      ],
      "type": "VEC3"
    },
    {
      "bufferView": 2,
      "byteOffset": 26928,
      "componentType": 5126,
      "count": 2244,
      "max": [
        0.9993652105331421,
        1.0,
        0.9999837875366211
      ],
      "min": [
        -0.9993652105331421,
        -1.0,
        -0.9999837875366211
      ],
      "type": "VEC3"
    },
    {
      "bufferView": 1,
      "componentType": 5126,
      "count": 2244,
      "max": [
        0.48828399181365967,
        0.4885540008544922
      ],
      "min": [
        0.01171599980443716,
        0.011447000317275524
      ],
      "type": "VEC2"
    },
    {
      "bufferView": 0,
      "componentType": 5125,
      "count": 13464,
      "type": "SCALAR"
    }
  ],
  "asset": {
    "extras": {
      "author": "Alexander (https://sketchfab.com/pravdin)",
      "license": "CC-BY-4.0 (http://creativecommons.org/licenses/by/4.0/)",
      "source": "https://sketchfab.com/3d-models/map-pointer-3d-icon-a30e2619537a425d90618ae5901c2989",
      "title": "Map Pointer (3D Icon)"
    },
    "generator": "Sketchfab-12.66.0",
    "version": "2.0"
  },
  "bufferViews": [
    {
      "buffer": 0,
      "byteLength": 53856,
      "name": "floatBufferViews",
      "target": 34963
    },
    {
      "buffer": 0,
      "byteLength": 17952,
      "byteOffset": 53856,
      "byteStride": 8,
      "name": "floatBufferViews",
      "target": 34962
    },
    {
      "buffer": 0,
      "byteLength": 53856,
      "byteOffset": 71808,
      "byteStride": 12,
      "name": "floatBufferViews",
      "target": 34962
    }
  ],
  "buffers": [
    {
      "byteLength": 125664,
      "uri": "scene.bin"
    }
  ],
  "materials": [
    {
      "doubleSided": true,
      "name": "None",
      "pbrMetallicRoughness": {
        "baseColorFactor": [
          1.0,
          0.024031858959787163,
          0.06307076479931231,
          1.0
        ],
        "metallicFactor": 0.0,
        "roughnessFactor": 0.3300393995220984
      }
    }
  ],
  "meshes": [
    {
      "name": "Object_0",
      "primitives": [
        {
          "attributes": {
            "NORMAL": 1,
            "POSITION": 0,
            "TEXCOORD_0": 2
          },
          "indices": 3,
          "material": 0,
          "mode": 4
        }
      ]
    }
  ],
  "nodes": [
    {
      "children": [
        1
      ],
      "matrix": [
        1.0,
        0.0,
        0.0,
        0.0,
        0.0,
        2.220446049250313e-16,
        -1.0,
        0.0,
        0.0,
        1.0,
        2.220446049250313e-16,
        0.0,
        0.0,
        0.0,
        0.0,
        1.0
      ],
      "name": "Sketchfab_model"
    },
    {
      "children": [
        2
      ],
      "name": "5f6fc745fefb4102b3fcdca6cbc9bfe8.obj.cleaner.materialmerger.gles"
    },
    {
      "mesh": 0,
      "name": "Object_2"
    }
  ],
  "scene": 0,
  "scenes": [
    {
      "name": "Sketchfab_Scene",
      "nodes": [
        0
      ]
    }
  ]
}
